<svg id="Calque_1" data-name="Calque 1" xmlns="http://www.w3.org/2000/svg" viewBox="0 0 441.04 211.21"><defs><style>.cls-1{fill:#73619e;}.cls-2,.cls-3{fill:none;stroke:#fff;stroke-width:0.5px;}.cls-2{stroke-linejoin:round;}.cls-3{stroke-miterlimit:10;}.cls-4{fill:#ef5143;}</style></defs><title>logo</title><path class="cls-1" d="M12.31,140" transform="translate(-5.03 -7.52)"/><polyline class="cls-2" points="19.43 105.32 7.29 132.52 27.2 145.64 51.49 100.95 112.2 39.75 55.86 62.09 55.86 150.01 86.94 184.49 215.18 200.04 328.83 154.38 404.61 113.09 370.61 48.01 427.44 91.72"/><polygon class="cls-3" points="200.12 8.66 287.55 14.98 324.46 52.38 200.12 8.66"/><line class="cls-3" x1="112.2" y1="39.75" x2="200.12" y2="8.66"/><line class="cls-3" x1="324.46" y1="52.38" x2="370.61" y2="48.01"/><polyline class="cls-3" points="404.61 113.09 393.92 143.69 298.72 184.49 356.03 168.95 334.66 120.38 328.83 154.38"/><polyline class="cls-3" points="162.72 200.04 27.2 145.64 215.18 200.04 298.72 184.49"/><circle class="cls-4" cx="7.29" cy="132.52" r="7.29"/><circle class="cls-4" cx="393.92" cy="143.69" r="18.46"/><circle class="cls-4" cx="162.72" cy="200.04" r="4.37"/><circle class="cls-4" cx="427.44" cy="91.72" r="13.6"/><circle class="cls-4" cx="200.12" cy="8.66" r="8.66"/><circle class="cls-4" cx="55.86" cy="62.09" r="4.37"/><circle class="cls-4" cx="55.86" cy="150.01" r="4.37"/><circle class="cls-4" cx="298.72" cy="184.49" r="4.37"/><circle class="cls-4" cx="334.66" cy="120.38" r="10.2"/><circle class="cls-4" cx="324.46" cy="52.38" r="4.37"/><circle class="cls-4" cx="19.43" cy="105.32" r="2.43"/><circle class="cls-4" cx="27.2" cy="145.64" r="4.37"/><circle class="cls-4" cx="86.94" cy="184.49" r="4.37"/><circle class="cls-4" cx="112.2" cy="39.75" r="10.69"/><circle class="cls-4" cx="370.61" cy="48.01" r="2.43"/><circle class="cls-4" cx="287.55" cy="14.98" r="3.4"/><circle class="cls-4" cx="404.61" cy="113.09" r="3.4"/><circle class="cls-4" cx="215.17" cy="200.04" r="11.17"/><circle class="cls-4" cx="328.83" cy="154.38" r="3.89"/><circle class="cls-4" cx="356.03" cy="168.95" r="4.1"/><circle class="cls-4" cx="51.49" cy="100.95" r="4.37"/><path class="cls-4" d="M202.89,177.34a55.06,55.06,0,0,1-25.32-5.81,65.38,65.38,0,0,1-19.7-15.19,67.87,67.87,0,0,1-12.76-21.57,71.48,71.48,0,0,1-4.5-24.95A69.24,69.24,0,0,1,145.4,84.3a71.33,71.33,0,0,1,13.13-21.57,62.84,62.84,0,0,1,19.79-14.91,56.13,56.13,0,0,1,24.76-5.53,54.36,54.36,0,0,1,25.32,5.91A64.21,64.21,0,0,1,248,63.67a71.52,71.52,0,0,1,12.66,21.67A70.53,70.53,0,0,1,247.25,157a63.84,63.84,0,0,1-19.7,14.82A55.52,55.52,0,0,1,202.89,177.34Zm-52.71-67.53a64.09,64.09,0,0,0,3.85,22,59.49,59.49,0,0,0,10.88,18.76,53.86,53.86,0,0,0,16.69,13,46.53,46.53,0,0,0,21.29,4.88,46,46,0,0,0,21.67-5.06A54,54,0,0,0,241.16,150a61.7,61.7,0,0,0,10.69-18.85,63.22,63.22,0,0,0-.19-43.42,61,61,0,0,0-11-18.76A53.92,53.92,0,0,0,224,56a48.68,48.68,0,0,0-42.86.19,52.54,52.54,0,0,0-16.6,13.41A64.32,64.32,0,0,0,150.18,109.81Z" transform="translate(-5.03 -7.52)"/></svg>